<?xml version="1.0" encoding="UTF-8"?>
<svg version="1.1" xmlns="http://www.w3.org/2000/svg" width="512" height="512">
<path d="M0 0 C0.64266688 -0.00350607 1.28533377 -0.00701215 1.9474754 -0.01062447 C4.10373573 -0.01993787 6.25972594 -0.0150154 8.41599751 -0.01015663 C9.97648743 -0.01389294 11.53697549 -0.01849438 13.09746057 -0.02388728 C17.38807559 -0.03613537 21.67861274 -0.03585468 25.96924126 -0.03349853 C30.59584866 -0.03309081 35.22243095 -0.04412527 39.84902668 -0.05361366 C48.9149389 -0.07023518 57.98082511 -0.07572375 67.04675128 -0.07683842 C74.41640199 -0.07778846 81.78604411 -0.08189659 89.1556921 -0.08823967 C110.04842235 -0.10585617 130.94113205 -0.11507804 151.83386978 -0.11357872 C153.52379539 -0.11345885 153.52379539 -0.11345885 155.24786091 -0.11333656 C156.3758533 -0.1132548 157.50384568 -0.11317304 158.66601966 -0.1130888 C176.94308511 -0.11227606 195.22006812 -0.1314097 213.49710973 -0.1596133 C232.26230812 -0.1883417 251.0274663 -0.20215357 269.79268724 -0.20042574 C280.32848739 -0.19976177 290.86420115 -0.20525724 301.3999815 -0.22678185 C310.37156389 -0.24499317 319.34302073 -0.24934145 328.3146136 -0.235763 C332.89105229 -0.22923278 337.46725011 -0.22911805 342.04366589 -0.2464695 C346.2365786 -0.26220315 350.42905955 -0.25933369 354.62196175 -0.24190123 C356.13544108 -0.23883195 357.64895266 -0.24246109 359.16239395 -0.25362138 C370.75426136 -0.33341137 380.04350464 1.06459993 388.73980427 9.26898766 C395.08931416 16.46698439 397.99604459 25.10918617 397.73589802 34.64789391 C396.92465116 43.38842456 393.67477465 50.02856651 387.49371052 56.25726891 C380.82546718 61.67304219 374.57343605 64.50379958 365.87999058 64.51453781 C364.91679205 64.51979692 364.91679205 64.51979692 363.93413496 64.52516228 C361.78571386 64.53445488 359.6375651 64.5295586 357.48913288 64.52469444 C355.9319047 64.52843179 354.37467839 64.53303365 352.81745505 64.53842509 C348.54050086 64.55066014 344.26362485 64.55039402 339.98665714 64.54803634 C335.37301903 64.5476283 330.75940603 64.55866613 326.14577961 64.56815147 C317.10741006 64.58476541 308.06906661 64.59026121 299.03068307 64.59137623 C291.68346284 64.59232655 284.33625121 64.59643606 276.9890337 64.60277748 C256.15754911 64.62039125 235.32608514 64.62961618 214.49459305 64.62811653 C213.37152838 64.62803662 212.24846371 64.62795671 211.09136677 64.62787437 C209.9669305 64.62779261 208.84249423 64.62771085 207.68398413 64.62762661 C189.46194763 64.62681376 171.23999379 64.64595097 153.0179812 64.67415111 C134.30699174 64.70287943 115.59604259 64.71669142 96.88503051 64.71496356 C86.38054428 64.71429962 75.87614471 64.71979351 65.37167835 64.74131966 C56.42756844 64.75953078 47.48358445 64.76387935 38.53946403 64.75030081 C33.97719498 64.74377073 29.41516755 64.74365539 24.85292149 64.76100731 C20.67300118 64.77674139 16.49351397 64.77387108 12.31360421 64.75643905 C10.80486536 64.75336987 9.29609417 64.75699846 7.78739348 64.7681592 C-3.78986953 64.84810213 -13.0679768 63.43871743 -21.75238323 55.24555016 C-28.10189312 48.04755342 -31.00862356 39.40535165 -30.74847698 29.86664391 C-29.93771906 21.13138116 -26.69120937 14.47787103 -20.50628948 8.25726891 C-14.09273194 3.1286193 -8.32652481 0.01025428 0 0 Z " fill="#000000" transform="translate(72.5062894821167,95.74273109436035)"/>
<path d="M0 0 C1.11560814 -0.00644889 2.23121628 -0.01289778 3.38063073 -0.0195421 C5.21139456 -0.01489629 5.21139456 -0.01489629 7.07914352 -0.01015663 C9.03000638 -0.0169533 9.03000638 -0.0169533 11.0202806 -0.02388728 C14.6287359 -0.03612335 18.23709853 -0.0358561 21.84556985 -0.03349853 C25.73800222 -0.03309051 29.63040482 -0.04412813 33.52282333 -0.05361366 C41.14860324 -0.07022839 48.77435223 -0.07572344 56.40014872 -0.07683842 C62.59942333 -0.07778875 68.79868775 -0.0818983 74.99795914 -0.08823967 C92.57550417 -0.10585403 110.15302477 -0.11507834 127.73057869 -0.11357872 C128.67823875 -0.11349881 129.62589881 -0.1134189 130.60227585 -0.11333656 C132.02550256 -0.11321392 132.02550256 -0.11321392 133.47748134 -0.1130888 C148.85175866 -0.11227604 164.22593799 -0.13141079 179.60018697 -0.1596133 C195.38779896 -0.18834542 211.17536317 -0.20215338 226.96300197 -0.20042574 C235.82594868 -0.19976191 244.68879269 -0.205251 253.55171585 -0.22678185 C261.09858164 -0.24499805 268.64529817 -0.24933746 276.19217643 -0.235763 C280.04143716 -0.22923528 283.89041156 -0.22910873 287.739645 -0.2464695 C291.91626001 -0.26511273 296.09221282 -0.25264053 300.26884079 -0.23720741 C302.08622029 -0.2526381 302.08622029 -0.2526381 303.94031453 -0.26838052 C313.66990451 -0.18890833 322.23126399 2.4393469 329.42795944 9.25726891 C337.18532057 18.90928506 338.39685127 28.24779493 337.42795944 40.25726891 C336.55575624 43.63293104 335.28136728 46.318642 333.42795944 49.25726891 C333.07733444 49.87859703 332.72670944 50.49992516 332.36545944 51.14008141 C328.02738229 58.09908017 321.15309486 61.99902937 313.42795944 64.25726891 C310.65524983 64.51026857 310.65524983 64.51026857 307.75128174 64.51453781 C306.63778264 64.5209867 305.52428355 64.5274356 304.37704206 64.53407991 C303.16401874 64.53098271 301.95099543 64.5278855 300.70121384 64.52469444 C298.75625302 64.53149111 298.75625302 64.53149111 296.77200007 64.53842509 C293.17913615 64.55064566 289.58636541 64.55039574 285.99348545 64.54803634 C282.11604824 64.54762793 278.23864081 64.55866965 274.3612175 64.56815147 C266.76665526 64.58475757 259.17212407 64.59026085 251.5775452 64.59137623 C245.40309332 64.59232694 239.22865167 64.59643842 233.05420303 64.60277748 C215.54296933 64.62038928 198.03176013 64.62961652 180.5205175 64.62811653 C179.57667256 64.62803662 178.63282762 64.62795671 177.66038132 64.62787437 C176.24288224 64.62775173 176.24288224 64.62775173 174.79674682 64.62762661 C159.48464046 64.62681386 144.17263251 64.64594896 128.86055461 64.67415111 C113.13279676 64.70288992 97.40508689 64.71669083 81.67730212 64.71496356 C72.84954978 64.71429997 64.02190058 64.71977838 55.19417191 64.74131966 C47.67736896 64.75954464 40.16071591 64.76386804 32.64390042 64.75030081 C28.81071054 64.7437776 24.97780811 64.74363023 21.14464569 64.76100731 C16.98376024 64.77967558 12.82353828 64.76716665 8.66263962 64.75174522 C7.45853919 64.76203235 6.25443877 64.77231948 5.01385045 64.78291833 C-5.20377079 64.69930325 -13.28093556 62.35640231 -20.81813431 55.24555016 C-27.1676442 48.04755342 -30.07437463 39.40535165 -29.81422806 29.86664391 C-29.00347014 21.13138116 -25.75696045 14.47787103 -19.57204056 8.25726891 C-13.58542891 3.4700298 -7.81149678 0.01143675 0 0 Z " fill="#000000" transform="translate(71.57204055786133,223.74273109436035)"/>
<path d="M0 0 C1.20863975 -0.00679667 1.20863975 -0.00679667 2.44169647 -0.01373065 C5.13915269 -0.02638127 7.83640718 -0.02475383 10.53388977 -0.02310181 C12.46911885 -0.02908676 14.40434554 -0.03589222 16.33956909 -0.04345703 C21.59598792 -0.06113044 26.85234163 -0.06581306 32.1087873 -0.0670886 C35.39460219 -0.06851032 38.68040054 -0.07278038 41.96621132 -0.07808304 C53.43474503 -0.09658973 64.90323225 -0.1047531 76.3717804 -0.10317993 C87.05257432 -0.10197927 97.73316592 -0.12306532 108.41390866 -0.15466726 C117.59032028 -0.18084804 126.76666591 -0.19154643 135.94311458 -0.19026911 C141.42078404 -0.18975989 146.89827381 -0.19542089 152.37590599 -0.21662521 C157.53140904 -0.23603713 162.6865616 -0.23611175 167.84207726 -0.22159195 C169.72941603 -0.21950623 171.61677691 -0.22419055 173.50407791 -0.23631287 C185.56579803 -0.3087391 196.09491355 -0.14303845 205.41792297 8.56430054 C212.81158588 16.78786439 214.53107364 25.50188189 214.26167297 36.27914429 C213.78734663 44.66483884 210.17447774 51.67036254 203.94917297 57.26742554 C197.00566242 62.48894547 190.53298228 64.57122594 181.8160553 64.53485107 C180.61225924 64.54164774 180.61225924 64.54164774 179.38414407 64.54858172 C176.70361286 64.5612094 174.02328526 64.5596064 171.34272766 64.55795288 C169.41720316 64.5639392 167.49168106 64.57074499 165.56616211 64.57830811 C160.34079315 64.59596603 155.11548971 64.60066344 149.8900938 64.60193968 C146.62320209 64.6033621 143.35632698 64.60763346 140.08943939 64.61293411 C128.68573958 64.63143462 117.28208651 64.63960481 105.87837219 64.63803101 C95.25947301 64.63683002 84.64077723 64.65792393 74.0219295 64.68951833 C64.89645266 64.71569895 55.77104217 64.72639753 46.64552808 64.72512019 C41.19917223 64.72461103 35.75299711 64.73026885 30.30667877 64.75147629 C25.18153051 64.77088833 20.05673481 64.77096275 14.93157387 64.75644302 C13.05552211 64.75435743 11.17944812 64.7590409 9.30343437 64.77116394 C-3.34143287 64.84755343 -13.61181974 64.39296372 -23.29692078 55.25570679 C-29.64643067 48.05771005 -32.5531611 39.41550828 -32.29301453 29.87680054 C-31.48225661 21.14153779 -28.23574692 14.48802766 -22.05082703 8.26742554 C-15.03481862 2.65702155 -9.04252578 -0.0373908 0 0 Z " fill="#000000" transform="translate(74.05082702636719,351.7325744628906)"/>
</svg>
